<?xml version="1.0" encoding="utf-8"?>
<!-- Generator: Adobe Illustrator 24.0.3, SVG Export Plug-In . SVG Version: 6.00 Build 0)  -->
<svg version="1.1" id="レイヤー_1" xmlns="http://www.w3.org/2000/svg" xmlns:xlink="http://www.w3.org/1999/xlink" x="0px"
	 y="0px" viewBox="0 0 94 28" style="enable-background:new 0 0 94 28;" xml:space="preserve">
<style type="text/css">
	.st0{fill:#BF0000;}
	.st1{fill:none;}
</style>
<g>
	<g>
		<path class="st0" d="M54.48,4.5282c0.5905,0,1.071,0.4804,1.071,1.071V21.842c0,0.5905-0.4804,1.071-1.071,1.071H24.1362
			c-0.5905,0-1.071-0.4804-1.071-1.071V5.5991c0-0.5905,0.4804-1.071,1.071-1.071H54.48 M54.48,3.8142H24.1362
			c-0.9817,0-1.7849,0.8032-1.7849,1.7849V21.842c0,0.9817,0.8032,1.7849,1.7849,1.7849H54.48c0.9817,0,1.7849-0.8032,1.7849-1.7849
			V5.5991C56.265,4.6174,55.4618,3.8142,54.48,3.8142L54.48,3.8142z"/>
		<g>
			<g>
				<g>
					<path class="st0" d="M53.1826,15.4592c0,0.2311,0.0058,0.4443-0.001,0.6571c-0.03,0.9442-0.0628,1.8884-0.0964,2.8325
						c-0.0168,0.472-0.0367,0.9439-0.0572,1.4158c-0.0081,0.1851-0.1148,0.2921-0.3017,0.2925
						c-0.8288,0.002-1.6576,0.0021-2.4864-0.001c-0.2221-0.0008-0.3235-0.1059-0.3327-0.3359
						c-0.0134-0.3334-0.0195-0.6671-0.0315-1.0005c-0.0341-0.944-0.0703-1.888-0.1045-2.832
						c-0.0112-0.311-0.0186-0.6221-0.0283-0.9331c-0.0008-0.0258-0.0064-0.0514-0.0122-0.0953
						c-0.1677,0-0.3352,0.0029-0.5024-0.0014c-0.066-0.0017-0.1376-0.0064-0.1961-0.0329c-0.1288-0.0583-0.1613-0.176-0.1612-0.3085
						c0.0008-0.84,0.0004-1.6801,0.0005-2.5201c0-0.6525-0.0003-1.3051,0.0002-1.9576c0.0002-0.2746,0.0986-0.3736,0.3718-0.3737
						c1.4851-0.0003,2.9701-0.0003,4.4552-0.0001c0.2751,0,0.3676,0.0882,0.3678,0.3619c0.0012,1.5001,0.0011,3.0001,0.0002,4.5002
						c-0.0001,0.229-0.1027,0.3301-0.3294,0.3319C53.5653,15.4602,53.3935,15.4592,53.1826,15.4592z"/>
					<path class="st0" d="M51.4842,6.8012c0.8016-0.0006,1.445,0.6394,1.4466,1.4389c0.0016,0.7966-0.6475,1.4466-1.4432,1.4452
						c-0.791-0.0014-1.4391-0.6458-1.4441-1.436C50.0384,7.4555,50.6888,6.8018,51.4842,6.8012z"/>
				</g>
				<g>
					<path class="st0" d="M28.8718,15.4592c0,0.2311,0.0058,0.4443-0.001,0.6571c-0.03,0.9442-0.0628,1.8884-0.0964,2.8325
						c-0.0168,0.472-0.0367,0.9439-0.0572,1.4158c-0.0081,0.1851-0.1148,0.2921-0.3018,0.2925
						c-0.8288,0.002-1.6576,0.0021-2.4864-0.001c-0.2221-0.0008-0.3235-0.1059-0.3327-0.3359
						c-0.0134-0.3334-0.0195-0.6671-0.0315-1.0005c-0.0341-0.944-0.0703-1.888-0.1045-2.832
						c-0.0112-0.311-0.0186-0.6221-0.0283-0.9331c-0.0008-0.0258-0.0064-0.0514-0.0122-0.0953
						c-0.1677,0-0.3352,0.0029-0.5025-0.0014c-0.066-0.0017-0.1376-0.0064-0.1961-0.0329c-0.1288-0.0583-0.1613-0.176-0.1612-0.3085
						c0.0008-0.84,0.0004-1.6801,0.0005-2.5201c0-0.6525-0.0003-1.3051,0.0002-1.9576c0.0002-0.2746,0.0986-0.3736,0.3718-0.3737
						c1.4851-0.0003,2.9701-0.0003,4.4552-0.0001c0.2751,0,0.3676,0.0882,0.3678,0.3619c0.0012,1.5001,0.0011,3.0001,0.0002,4.5002
						c-0.0001,0.229-0.1027,0.3301-0.3294,0.3319C29.2545,15.4602,29.0826,15.4592,28.8718,15.4592z"/>
					<path class="st0" d="M27.1734,6.8012c0.8016-0.0006,1.445,0.6394,1.4466,1.4389c0.0016,0.7966-0.6475,1.4466-1.4432,1.4452
						c-0.791-0.0014-1.4391-0.6458-1.4441-1.436C25.7275,7.4555,26.3779,6.8018,27.1734,6.8012z"/>
				</g>
				<g>
					<path class="st0" d="M45.2968,16.4475c-0.1589-0.0914-0.319-0.1807-0.4764-0.2748c-0.1253-0.0749-0.1884-0.1869-0.1693-0.335
						c0.0178-0.1376,0.097-0.2434,0.23-0.2638c0.0948-0.0145,0.212,0.005,0.2962,0.0512c0.4204,0.2308,0.8332,0.4755,1.2488,0.715
						c0.1012,0.0583,0.2036,0.1148,0.3047,0.1734c0.2539,0.1473,0.2523,0.4556-0.0023,0.602
						c-0.5136,0.2953-1.0267,0.5916-1.5407,0.8862c-0.235,0.1347-0.4785,0.0512-0.532-0.1797
						c-0.032-0.1384,0.0196-0.2704,0.1499-0.3523c0.1632-0.1025,0.3311-0.1977,0.5276-0.3142c-4.0274,0-8.0209,0-12.0493,0
						c0.1331,0.0791,0.2411,0.1432,0.349,0.2073c0.0623,0.037,0.1265,0.0712,0.1866,0.1114
						c0.1493,0.0997,0.1936,0.2858,0.1066,0.4359c-0.0869,0.15-0.2737,0.2117-0.431,0.125
						c-0.3317-0.1828-0.6582-0.3751-0.9867-0.5637c-0.2028-0.1164-0.404-0.2357-0.6087-0.3485
						c-0.1229-0.0677-0.2022-0.1619-0.2038-0.3044c-0.0016-0.1421,0.0734-0.239,0.1961-0.309
						c0.5146-0.2938,1.027-0.5915,1.541-0.8864c0.2028-0.1163,0.3969-0.0764,0.4929,0.0972
						c0.0919,0.1662,0.0367,0.3529-0.1379,0.4565c-0.149,0.0884-0.2999,0.1738-0.4496,0.2611
						c-0.0057,0.0033-0.0078,0.0127-0.019,0.0322c3.9939,0,7.9801,0,11.9663,0C45.2894,16.4624,45.2931,16.455,45.2968,16.4475z"/>
					<g>
						<path class="st0" d="M32.7057,14.0429v0.4794h-0.6005v-2.0968h0.8715c0.0049-0.0678,0.0098-0.1307,0.0146-0.1937h-0.833
							v-1.3851h0.552v0.586c0.1211-0.0678,0.2325-0.1452,0.3439-0.2276c-0.0969-0.0725-0.1647-0.1259-0.2663-0.1888l0.2421-0.2615
							c0.1016,0.0678,0.2034,0.1307,0.3002,0.1985c0.0678-0.0727,0.1356-0.1503,0.1938-0.2325h-1.5207v-0.552h0.9444v-0.247h0.6537
							v0.247h0.9202v0.552h-0.9831l0.2955,0.1792c-0.0678,0.1065-0.1307,0.189-0.2083,0.2857
							c0.0823,0.0727,0.1598,0.1501,0.2372,0.2325l-0.2857,0.2906c-0.0774-0.092-0.1403-0.1696-0.2275-0.247
							c-0.1309,0.1016-0.2374,0.1792-0.3875,0.2566l-0.2519-0.2808v0.3244h1.1672v-0.9153h0.5085v0.4311
							c0.2566-0.4311,0.3824-0.8813,0.4455-1.3704l0.6343,0.0678c-0.0291,0.2517-0.0776,0.4407-0.1454,0.6828h0.2616
							c0.0872-0.2034,0.1743-0.4987,0.2179-0.7168l0.6343,0.0485c-0.058,0.2034-0.1501,0.4795-0.2324,0.6683h0.3437v0.6343H36.202
							v0.4504h0.2759v0.5811H36.202v0.4551h0.2759v0.5763H36.202v0.46h0.3824v0.6634h-1.9369v-2.426
							c-0.0436,0.058-0.0629,0.0823-0.1163,0.1307l-0.1452-0.2712v0.3197H33.495c-0.0098,0.0629-0.0242,0.1259-0.0387,0.1937h1.0072
							v1.7433c0,0.2228-0.121,0.3535-0.3437,0.3535h-0.5569l-0.1018-0.6634C33.2093,13.9266,32.9574,13.9897,32.7057,14.0429z
							 M32.9285,12.9533h-0.2228v0.586c0.0436-0.0049,0.0872-0.0049,0.1307-0.0098C32.8703,13.3359,32.9043,13.1471,32.9285,12.9533
							z M33.3885,13.1422l0.2906-0.0776c0.0774,0.2179,0.1452,0.4553,0.1985,0.6828v-0.7942H33.34
							c-0.0485,0.1792-0.0969,0.3535-0.1501,0.5278c0.092-0.0145,0.1839-0.0289,0.2711-0.0483
							C33.4417,13.3359,33.4174,13.239,33.3885,13.1422z M35.2818,11.2923v0.4504h0.305v-0.4504H35.2818z M35.2818,12.3238v0.4551
							h0.305v-0.4551H35.2818z M35.2818,13.3552v0.46h0.305v-0.46H35.2818z"/>
						<path class="st0" d="M37.0635,11.7233l-0.0774-0.7748c0.2421,0,0.5567-0.0098,0.7942-0.0387l0.0096-0.7894h0.7506
							c-0.0145,0.3826-0.0242,0.7701-0.0338,1.1574c0.3486-0.3342,0.707-0.6198,1.2155-0.6198c0.5327,0,0.9589,0.3342,0.9589,0.8911
							c0,0.2663-0.0727,0.7312-0.1067,1.012c-0.0193,0.1259-0.058,0.4455-0.058,0.5569c0,0.0774,0.0145,0.1743,0.1114,0.1743
							c0.1454,0,0.3777-0.1985,0.4842-0.2906l0.189,0.7216c-0.252,0.213-0.5425,0.368-0.8767,0.368
							c-0.4698,0-0.7119-0.2906-0.7119-0.7457c0-0.3294,0.1114-1.0509,0.1598-1.4142c0.0098-0.0872,0.0193-0.1743,0.0193-0.2615
							c0-0.1645-0.0967-0.2808-0.2663-0.2808c-0.4067,0-0.8862,0.5229-1.133,0.8135c0,0.305,0,0.6103,0,0.9153
							c0,0.402,0.0047,0.8039,0.0096,1.2057h-0.7506l0.0098-1.1428c-0.1356,0.2034-0.2663,0.4115-0.3971,0.615l-0.5667-0.4891
							c0.3244-0.4455,0.649-0.8909,0.9733-1.3364l0.0049-0.3246C37.5381,11.6798,37.3007,11.704,37.0635,11.7233z"/>
						<path class="st0" d="M41.8963,10.5806l3.2735-0.2325l0.0629,0.765c-0.552,0.0146-0.9878,0.0824-1.4625,0.3826
							c-0.3777,0.2372-0.7119,0.6198-0.7119,1.0945c0,0.7359,0.8426,0.9442,1.4286,0.9878l-0.3681,0.7603
							c-0.954-0.126-1.8642-0.6054-1.8642-1.695c0-0.6441,0.3146-1.1428,0.8522-1.4818l-2.0001,0.2568l-0.058-0.8088
							C41.3296,10.6046,41.6153,10.5999,41.8963,10.5806z"/>
						<path class="st0" d="M45.6297,10.4932v-0.2808h0.9831v0.2808l-0.155,2.46h-0.6732L45.6297,10.4932z M45.683,13.3068h0.8764
							v0.799H45.683V13.3068z"/>
					</g>
				</g>
			</g>
		</g>
	</g>
	<g>
		<g>
			<path class="st0" d="M60.1041,8.6993l-1.0655,0.8332c-0.5047-0.7774-0.9936-1.4182-1.6023-2.1073l0.9773-0.8171
				C59.0706,7.3132,59.5595,7.9058,60.1041,8.6993z M63.9739,6.7522c-0.1281,1.4102-0.4327,2.9164-1.2498,4.1021
				c-0.8013,1.1616-2.0111,1.931-3.341,2.3393l-1.0175-1.0175c1.2098-0.3124,2.3956-0.9532,3.1486-1.9787
				c0.7611-1.0336,1.0095-2.3795,1.0815-3.6375L63.9739,6.7522z"/>
			<path class="st0" d="M71.4315,9.0996v1.242h-6.8582v-1.242H71.4315z"/>
			<path class="st0" d="M75.0449,8.9554l-0.4967,1.146c-0.7772-0.3767-1.5863-0.689-2.4036-0.9617l0.4889-1.1375
				C73.4586,8.2664,74.2597,8.5788,75.0449,8.9554z M78.3299,7.6095l0.8493,1.1295c-0.7531,1.1621-1.6264,2.1635-2.7481,2.9887
				c-1.0175,0.7613-2.0189,1.2179-3.2528,1.5302l-0.5288-1.3138C75.1812,11.4871,77.0239,9.7248,78.3299,7.6095z M75.686,7.0646
				l-0.4809,1.1541c-0.785-0.3767-1.5222-0.6734-2.3474-0.9537l0.4967-1.1215C74.1796,6.4238,74.8847,6.712,75.686,7.0646z"/>
			<path class="st0" d="M85.0359,8.4105l0.4648,0.5208c-0.4086,0.9055-0.8013,1.6588-1.3459,2.492l-0.9615-0.5288
				c0.3124-0.4329,0.5128-0.7694,0.7611-1.242l-1.2417,0.1843l0.5607,3.3091l-1.1137,0.2079L81.591,10.005l-1.7387,0.2647
				l-0.1682-1.0818l1.7306-0.2486l-0.2245-1.3218l1.1217-0.1441l0.2164,1.3058L85.0359,8.4105z"/>
			<path class="st0" d="M88.3051,6.4157v1.9551c0,1.9386-0.2883,3.4608-1.7304,4.871l-0.9615-0.9853
				c1.1137-1.1536,1.3861-2.2675,1.3861-3.8299V6.4157H88.3051z M90.2441,6.3037v4.9433c0.7611-0.4806,1.3781-1.138,1.8748-1.8748
				L93,10.2773c-1.0095,1.4182-2.3474,2.4598-4.0539,2.8767V6.3037H90.2441z"/>
		</g>
		<g>
			<path class="st0" d="M59.0765,21.2517l-0.8242-0.879c0.5631-0.199,1.1262-0.5014,1.4698-1.0024
				c0.2609-0.3847,0.3433-0.7831,0.3776-1.2363H57.593v-1.0577h5.906v1.0577h-2.2526
				C61.171,19.6998,60.5255,20.6473,59.0765,21.2517z M62.1942,15.4351v1.0369h-3.8594v-1.0369H62.1942z M62.5718,14.824
				c0.2543,0.4532,0.3915,0.8719,0.5357,1.3667l-0.5357,0.2335c-0.1304-0.5425-0.254-0.8861-0.5012-1.3875L62.5718,14.824z
				 M63.5058,14.6936c0.254,0.4669,0.3915,0.8653,0.5357,1.3733l-0.5425,0.2268c-0.1304-0.5562-0.2472-0.8724-0.5014-1.3875
				L63.5058,14.6936z"/>
			<path class="st0" d="M67.1663,21.2314h-0.982v-2.5137c-0.6248,0.3025-1.03,0.4806-1.6961,0.6938l-0.4809-0.8587
				c1.5591-0.4872,2.8776-1.2221,4.0725-2.3417l0.7552,0.6181c-0.5217,0.5014-1.0643,0.9272-1.6687,1.3185V21.2314z"/>
			<path class="st0" d="M75.3383,20.2834l-0.879,0.776c-0.5151-0.6933-1.0919-1.3526-1.7512-1.9225
				c-0.7966,0.8927-1.6619,1.5175-2.7538,2.0052l-0.6798-0.9343c1.6824-0.7207,3.0215-1.8469,3.7221-3.5709h-3.207v-1.0714h4.7658
				c-0.2677,1.051-0.5905,1.7854-1.1744,2.699C74.1297,18.8964,74.7341,19.5145,75.3383,20.2834z"/>
			<path class="st0" d="M76.7533,17.8387c-0.206,0.2198-0.4258,0.4258-0.6593,0.6181l-0.8242-0.7415
				c0.7831-0.6252,1.3393-1.3185,1.7925-2.2046h3.9074c-0.2883,2.699-1.5725,4.8209-4.2233,5.741l-0.7349-0.9064
				c0.9546-0.2883,1.7306-0.7212,2.4104-1.449C77.8383,18.4843,77.3783,18.196,76.7533,17.8387z M79.0675,18.0244
				c0.2885-0.5222,0.4258-0.8932,0.5494-1.4768H77.749c-0.103,0.172-0.2198,0.3365-0.3365,0.4948
				C77.9825,17.3444,78.5318,17.6671,79.0675,18.0244z"/>
			<path class="st0" d="M84.1838,16.5136l-0.6044,0.982c-0.6798-0.4532-1.3117-0.7694-2.0808-1.044l0.5151-0.9683
				C82.8102,15.7513,83.4763,16.067,84.1838,16.5136z M86.4019,16.4857l0.7349,0.982c-1.1949,1.9164-2.9598,3.2075-5.1919,3.6399
				l-0.3845-1.1399C83.8059,19.5485,85.2757,18.4639,86.4019,16.4857z"/>
			<path class="st0" d="M92.8915,20.2834l-0.879,0.776c-0.5151-0.6933-1.0919-1.3526-1.7512-1.9225
				c-0.7965,0.8927-1.6619,1.5175-2.7538,2.0052l-0.6798-0.9343c1.6824-0.7207,3.0215-1.8469,3.7221-3.5709h-3.207v-1.0714h4.7658
				c-0.268,1.051-0.5905,1.7854-1.1744,2.699C91.6828,18.8964,92.2873,19.5145,92.8915,20.2834z"/>
		</g>
	</g>
	<g>
		<path class="st1" d="M20.2493,26.3945H-1.4603C-2.3107,26.3945-3,25.7052-3,24.8548V3.1452c0-0.8504,0.6893-1.5397,1.5397-1.5397
			h21.7097c0.8503,0,1.5397,0.6893,1.5397,1.5397v21.7096C21.789,25.7052,21.0997,26.3945,20.2493,26.3945z"/>
		<g>
			<polygon class="st0" points="4.034,23.854 1.4651,21.6985 19.4795,21.6985 			"/>
			<path class="st0" d="M6.9597,20.0818v-4.7751H9.029l3.5824,4.7751h3.6624l-4.3289-5.7619
				c1.3491-0.9683,2.2351-2.543,2.2351-4.3266c0-2.9292-2.3819-5.3084-5.3111-5.3084H4.034v15.3969H6.9597z M6.9597,7.6082h1.9092
				c1.3138,0,2.3882,1.0687,2.3882,2.385c0,1.3198-1.0744,2.3878-2.3882,2.3878H6.9597V7.6082z"/>
		</g>
	</g>
</g>
</svg>
